<svg xmlns="http://www.w3.org/2000/svg" viewBox="0 0 128 128" width="100px" height="100px"><path d="M 44 1 C 20.3 1 1 20.3 1 44 C 1 54.4 4.7007812 64.2 11.300781 72 L 1.8007812 81.900391 C 1.0007813 82.800391 0.69921875 84.099219 1.1992188 85.199219 C 1.6992188 86.299219 2.8 87 4 87 L 32 87 C 33.7 87 35 85.7 35 84 C 35 82.3 33.7 81 32 81 L 11.099609 81 L 17.599609 74.199219 C 18.799609 72.999219 18.699609 71.2 17.599609 70 C 10.799609 63 7 53.8 7 44 C 7 23.6 23.6 7 44 7 C 60.3 7 74.399219 17.400391 79.199219 32.900391 C 79.699219 34.500391 81.4 35.400391 83 34.900391 C 84.6 34.400391 85.5 32.699609 85 31.099609 C 79.4 13.099609 62.9 1 44 1 z M 84 41 C 60.3 41 41 60.3 41 84 C 41 107.7 60.3 127 84 127 L 124 127 C 125.2 127 126.29922 126.29922 126.69922 125.19922 C 127.19922 123.99922 126.89961 122.80039 126.09961 121.90039 L 116.59961 112 C 123.29961 104.2 127 94.4 127 84 C 127 60.3 107.7 41 84 41 z M 84 47 C 104.4 47 121.00039 63.6 120.90039 84 C 120.90039 93.8 117.20078 103 110.30078 110 C 109.20078 111.2 109.20078 112.99922 110.30078 114.19922 L 116.90039 121 L 84 121 C 63.6 121 47 104.4 47 84 C 47 63.6 63.6 47 84 47 z M 69 74 C 67.3 74 66 75.3 66 77 C 66 78.7 67.3 80 69 80 L 99 80 C 100.7 80 102 78.7 102 77 C 102 75.3 100.7 74 99 74 L 69 74 z M 69 89 C 67.3 89 66 90.3 66 92 C 66 93.7 67.3 95 69 95 L 79 95 C 80.7 95 82 93.7 82 92 C 82 90.3 80.7 89 79 89 L 69 89 z M 95 89 C 93.3 89 92 90.3 92 92 C 92 93.7 93.3 95 95 95 L 99 95 C 100.7 95 102 93.7 102 92 C 102 90.3 100.7 89 99 89 L 95 89 z"/></svg>
