<svg xmlns="http://www.w3.org/2000/svg"  viewBox="0 0 128 128" width="100px" height="100px"><path d="M 19 1 C 11.8 1 6 6.8 6 14 L 6 41.5 C 6 50 13 57 21.5 57 C 26.6 57 31.2 54.499609 34 50.599609 C 36.8 54.499609 41.4 57 46.5 57 C 51.6 57 56.2 54.499609 59 50.599609 C 61.8 54.499609 66.4 57 71.5 57 C 76.6 57 81.2 54.499609 84 50.599609 C 86.8 54.499609 91.4 57 96.5 57 C 105 57 112 50 112 41.5 L 112 14 C 112 6.8 106.2 1 99 1 L 19 1 z M 19 7 L 31 7 L 31 41.5 C 31 46.7 26.7 51 21.5 51 C 16.3 51 12 46.7 12 41.5 L 12 14 C 12 10.1 15.1 7 19 7 z M 37 7 L 56 7 L 56 41.5 C 56 46.7 51.7 51 46.5 51 C 41.3 51 37 46.7 37 41.5 L 37 7 z M 62 7 L 81 7 L 81 41.5 C 81 46.7 76.7 51 71.5 51 C 66.3 51 62 46.7 62 41.5 L 62 7 z M 87 7 L 99 7 C 102.9 7 106 10.1 106 14 L 106 41.5 C 106 46.7 101.7 51 96.5 51 C 91.3 51 87 46.7 87 41.5 L 87 7 z M 124 11 C 122.3 11 121 12.3 121 14 L 121 24 C 121 25.7 122.3 27 124 27 C 125.7 27 127 25.7 127 24 L 127 14 C 127 12.3 125.7 11 124 11 z M 124 41 C 122.3 41 121 42.3 121 44 L 121 121 L 42 121 L 42 72 C 42 70.3 40.7 69 39 69 L 14 69 C 12.3 69 11 70.3 11 72 L 11 121 L 4 121 C 2.3 121 1 122.3 1 124 C 1 125.7 2.3 127 4 127 L 14 127 C 15.7 127 17 125.7 17 124 L 17 75 L 36 75 L 36 124 C 36 125.7 37.3 127 39 127 L 124 127 C 125.7 127 127 125.7 127 124 L 127 44 C 127 42.3 125.7 41 124 41 z M 53 69 C 51.3 69 50 70.3 50 72 L 50 109 C 50 110.7 51.3 112 53 112 L 109 112 C 110.7 112 112 110.7 112 109 L 112 72 C 112 70.3 110.7 69 109 69 L 53 69 z M 56 75 L 106 75 L 106 106 L 56 106 L 56 75 z"/></svg>