<svg xmlns="http://www.w3.org/2000/svg" viewBox="0 0 128 128" width="100px" height="100px"><path d="M 56 7 C 51.5 7 47.7 9.9 46.5 14 L 32 14 C 24.8 14 19 19.8 19 27 L 19 109 C 19 116.2 24.8 122 32 122 L 71 122 C 72.7 122 74 120.7 74 119 C 74 117.3 72.7 116 71 116 L 32 116 C 28.1 116 25 112.9 25 109 L 25 27 C 25 23.1 28.1 20 32 20 L 46.5 20 C 47.8 24.1 51.6 27 56 27 L 72 27 C 76.5 27 80.3 24.1 81.5 20 L 96 20 C 99.9 20 103 23.1 103 27 L 103 62 C 103 63.7 104.3 65 106 65 C 107.7 65 109 63.7 109 62 L 109 27 C 109 19.8 103.2 14 96 14 L 81.5 14 C 80.2 9.9 76.4 7 72 7 L 56 7 z M 56 13 L 72 13 C 74.2 13 76 14.8 76 17 C 76 19.2 74.2 21 72 21 L 56 21 C 53.8 21 52 19.2 52 17 C 52 14.8 53.8 13 56 13 z M 106.52148 81.871094 C 105.91953 81.853516 105.31172 81.862891 104.69922 81.900391 C 94.699219 82.600391 86.499609 90.800391 86.099609 100.90039 C 85.499609 112.70039 95.199609 122.40078 107.09961 121.80078 C 117.09961 121.30078 125.29961 113.30039 126.09961 103.40039 C 126.39961 100.00039 125.8 96.700781 124.5 93.800781 C 123.9 93.000781 122.60039 92.799609 121.90039 93.599609 C 121.40039 94.099609 120.90078 94.700391 120.30078 95.400391 C 115.90078 100.40039 108.30078 108.90039 108.30078 108.90039 C 107.70078 109.50039 106.89961 109.90039 106.09961 109.90039 L 106 109.90039 C 105.1 109.90039 104.29922 109.49922 103.69922 108.69922 L 96.800781 99.800781 C 95.900781 98.700781 95.900781 97.000391 96.800781 95.900391 C 98.100781 94.400391 100.30039 94.5 101.40039 96 L 106.19922 102.19922 C 106.19922 102.19922 113.50078 93.999219 117.30078 89.699219 C 117.60078 89.299219 117.89922 88.999219 118.19922 88.699219 C 118.99922 87.799219 118.90039 86.500781 117.90039 85.800781 C 114.66289 83.438281 110.73516 81.994141 106.52148 81.871094 z"/></svg>
